<svg width="1000" height="1000" viewBox="0 0 1000 1000" xmlns="http://www.w3.org/2000/svg"><defs/><path transform="matrix(0.6278287328061815 0 0 0.6278287328061815 47.69316315686737 17.60370093826763)" d="M 900.28029126984 457.87011062831 L 745.08029126984 368.27011062831 C 733.98029126984 361.87011062831 717.18029126984 361.87011062831 706.08029126984 368.27011062831 L 550.78029126984 457.87011062831 C 539.68029126984 464.27011062831 531.28029126984 478.77011062831 531.28029126984 491.67011062831 L 531.28029126984 653.37011062831 C 525.18029126984 656.87011062831 521.08029126984 663.37011062831 521.08029126984 670.87011062831 C 521.08029126984 682.07011062831 530.18029126984 691.07011062831 541.28029126984 691.07011062831 C 552.48029126984 691.07011062831 561.48029126984 681.97011062831 561.48029126984 670.87011062831 C 561.48029126984 663.37011062831 557.38029126984 656.77011062831 551.28029126984 653.37011062831 L 551.28029126984 491.67011062831 C 551.28029126984 486.07011062831 555.88029126984 478.07011062831 560.78029126984 475.27011062831 L 716.08029126984 385.67011062831 C 720.98029126984 382.87011062831 730.18029126984 382.87011062831 734.98029126984 385.67011062831 L 890.28029126984 475.27011062831 C 895.18029126984 478.07011062831 899.78029126984 486.07011062831 899.78029126984 491.67011062831 L 899.78029126984 670.97011062831 C 899.78029126984 676.57011062831 895.18029126984 684.57011062831 890.28029126984 687.37011062831 L 734.98029126984 776.97011062831 L 744.98029126984 794.37011062831 L 900.28029126984 704.77011062831 C 911.38029126984 698.37011062831 919.78029126984 683.87011062831 919.78029126984 670.97011062831 L 919.78029126984 491.67011062831 C 919.78029126984 478.77011062831 911.38029126984 464.27011062831 900.28029126984 457.87011062831 Z"/><path fill="#777777" transform="matrix(0.6278287328061815 0 0 0.6278287328061815 47.69316315686737 17.60370093826763)" d="M 860.78029126984 677.97011062831 C 869.98029126984 672.67011062831 876.88029126984 660.67011062831 876.88029126984 650.07011062831 L 876.88029126984 512.57011062831 C 876.88029126984 501.97011062831 869.98029126984 489.97011062831 860.78029126984 484.67011062831 L 741.68029126984 415.87011062831 C 732.48029126984 410.57011062831 718.68029126984 410.57011062831 709.48029126984 415.87011062831 L 605.58029126984 475.87011062831 C 602.58029126984 474.07011062831 599.08029126984 473.07011062831 595.38029126984 473.07011062831 C 584.18029126984 473.07011062831 575.18029126984 482.17011062831 575.18029126984 493.27011062831 C 575.18029126984 504.47011062831 584.28029126984 513.47011062831 595.38029126984 513.47011062831 C 606.58029126984 513.47011062831 615.58029126984 504.37011062831 615.58029126984 493.27011062831 C 615.58029126984 493.27011062831 615.58029126984 493.17011062831 615.58029126984 493.17011062831 L 719.48029126984 433.17011062831 C 722.48029126984 431.47011062831 728.68029126984 431.47011062831 731.68029126984 433.17011062831 L 850.78029126984 501.87011062831 C 853.78029126984 503.57011062831 856.88029126984 508.97011062831 856.88029126984 512.37011062831 L 856.88029126984 649.87011062831 C 856.88029126984 653.37011062831 853.78029126984 658.67011062831 850.78029126984 660.37011062831 L 731.68029126984 729.07011062831 C 728.68029126984 730.77011062831 722.48029126984 730.77011062831 719.48029126984 729.07011062831 L 600.38029126984 660.37011062831 L 590.38029126984 677.77011062831 L 709.48029126984 746.47011062831 C 714.08029126984 749.17011062831 719.88029126984 750.47011062831 725.58029126984 750.47011062831 C 731.38029126984 750.47011062831 737.08029126984 749.17011062831 741.68029126984 746.47011062831 L 860.78029126984 677.97011062831 Z"/><path transform="matrix(0.6278287328061815 0 0 0.6278287328061815 47.69316315686737 17.60370093826763)" d="M 616.68029126984 533.17011062831 L 616.68029126984 629.37011062831 C 616.68029126984 637.97011062831 622.08029126984 647.27011062831 629.48029126984 651.47011062831 L 712.78029126984 699.57011062831 C 716.48029126984 701.67011062831 720.98029126984 702.77011062831 725.58029126984 702.77011062831 C 730.08029126984 702.77011062831 734.68029126984 701.67011062831 738.38029126984 699.57011062831 L 821.68029126984 651.47011062831 C 829.08029126984 647.17011062831 834.48029126984 637.87011062831 834.48029126984 629.37011062831 L 834.48029126984 533.17011062831 C 834.48029126984 524.67011062831 829.08029126984 515.27011062831 821.68029126984 511.07011062831 L 753.58029126984 471.77011062831 C 753.58029126984 471.77011062831 753.58029126984 471.67011062831 753.58029126984 471.67011062831 C 753.58029126984 460.47011062831 744.48029126984 451.47011062831 733.38029126984 451.47011062831 C 722.18029126984 451.47011062831 713.18029126984 460.57011062831 713.18029126984 471.67011062831 C 713.18029126984 482.87011062831 722.28029126984 491.87011062831 733.38029126984 491.87011062831 C 737.08029126984 491.87011062831 740.58029126984 490.87011062831 743.58029126984 489.07011062831 L 811.68029126984 528.37011062831 C 812.88029126984 529.07011062831 814.48029126984 531.77011062831 814.48029126984 533.17011062831 L 814.48029126984 629.37011062831 C 814.48029126984 630.77011062831 812.88029126984 633.47011062831 811.78029126984 634.17011062831 L 728.28029126984 682.17011062831 C 727.08029126984 682.87011062831 723.98029126984 682.87011062831 722.78029126984 682.17011062831 L 639.48029126984 634.07011062831 C 638.28029126984 633.37011062831 636.78029126984 630.67011062831 636.78029126984 629.27011062831 L 636.78029126984 533.17011062831 L 616.68029126984 533.17011062831 Z"/><path fill="#777777" transform="matrix(0.6278287328061815 0 0 0.6278287328061815 47.69316315686737 17.60370093826763)" d="M 726.18029126984 528.07011062831 L 716.18029126984 510.67011062831 L 669.08029126984 537.87011062831 C 663.58029126984 541.07011062831 659.68029126984 547.77011062831 659.68029126984 554.17011062831 L 659.68029126984 608.47011062831 C 659.68029126984 614.87011062831 663.58029126984 621.57011062831 669.08029126984 624.77011062831 L 716.18029126984 651.97011062831 C 718.98029126984 653.57011062831 722.28029126984 654.37011062831 725.58029126984 654.37011062831 C 728.88029126984 654.37011062831 732.18029126984 653.57011062831 734.98029126984 651.97011062831 L 782.08029126984 624.77011062831 C 787.58029126984 621.57011062831 791.48029126984 614.87011062831 791.48029126984 608.47011062831 L 791.48029126984 571.67011062831 C 797.58029126984 568.17011062831 801.68029126984 561.67011062831 801.68029126984 554.17011062831 C 801.68029126984 542.97011062831 792.58029126984 533.97011062831 781.48029126984 533.97011062831 C 770.28029126984 533.97011062831 761.28029126984 543.07011062831 761.28029126984 554.17011062831 C 761.28029126984 561.67011062831 765.38029126984 568.27011062831 771.48029126984 571.67011062831 L 771.48029126984 607.77011062831 L 725.58029126984 634.17011062831 L 679.78029126984 607.77011062831 L 679.78029126984 554.87011062831 L 726.18029126984 528.07011062831 Z"/><path id="text" transform="matrix(1.6031490427625694 0 0 1.6031490427625694 -4.959742351046699 554.19568795849)" d="M 109.17522321429 41.31922991071 L 120.84709821429 41.31922991071 L 134.48772321429 123.81922991071 L 125.34709821429 123.81922991071 L 123.00334821429 108.06922991071 L 108.05022321429 108.06922991071 L 105.89397321429 123.81922991071 L 96.65959821429 123.81922991071 L 109.17522321429 41.31922991071 Z M 109.12834821429 100.19422991071 L 121.78459821429 100.19422991071 L 115.26897321429 56.60047991071 L 115.12834821429 56.60047991071 L 109.12834821429 100.19422991071 Z M 144.33147321429 41.31922991071 L 154.03459821429 41.31922991071 L 154.03459821429 115.80360491071 L 169.26897321429 115.80360491071 L 169.26897321429 123.81922991071 L 144.33147321429 123.81922991071 L 144.33147321429 41.31922991071 Z M 212.81584821429 41.31922991071 L 224.95647321429 41.31922991071 L 224.95647321429 123.81922991071 L 216.33147321429 123.81922991071 L 216.33147321429 90.72547991071 L 217.12834821429 59.88172991071 L 205.92522321429 123.67860491071 L 197.15959821429 123.67860491071 L 185.48772321429 59.88172991071 L 186.28459821429 90.72547991071 L 186.28459821429 123.81922991071 L 177.70647321429 123.81922991071 L 177.70647321429 41.31922991071 L 189.80022321429 41.31922991071 L 201.61272321429 109.14735491071 L 212.81584821429 41.31922991071 Z M 247.31584821429 41.31922991071 L 258.98772321429 41.31922991071 L 272.62834821429 123.81922991071 L 263.48772321429 123.81922991071 L 261.14397321429 108.06922991071 L 246.19084821429 108.06922991071 L 244.03459821429 123.81922991071 L 234.80022321429 123.81922991071 L 247.31584821429 41.31922991071 Z M 247.26897321429 100.19422991071 L 259.92522321429 100.19422991071 L 253.40959821429 56.60047991071 L 253.26897321429 56.60047991071 L 247.26897321429 100.19422991071 Z M 282.47209821429 41.31922991071 L 299.76897321429 41.31922991071 C 304.67522321429 41.31922991071 308.20647321429 42.33485491071 310.36272321429 44.36610491071 C 312.51897321429 46.39735491071 313.81584821429 49.85047991071 314.25334821429 54.72547991071 C 314.44084821429 56.72547991071 314.53459821429 59.84266741071 314.53459821429 64.07704241071 C 314.53459821429 68.31141741071 313.97991071429 71.86610491071 312.87053571429 74.74110491071 C 311.76116071429 77.61610491071 309.80022321429 79.47547991071 306.98772321429 80.31922991071 C 309.05022321429 80.66297991071 310.61272321429 81.74891741071 311.67522321429 83.57704241071 C 312.73772321429 85.40516741071 313.48772321429 88.31141741071 313.92522321429 92.29579241071 C 314.36272321429 96.28016741071 314.58147321429 102.20204241071 314.58147321429 110.06141741071 C 314.58147321429 117.92079241071 314.83147321429 122.50672991071 315.33147321429 123.81922991071 L 305.67522321429 123.81922991071 C 305.17522321429 122.81922991071 304.92522321429 113.55360491071 304.92522321429 96.02235491071 C 304.92522321429 90.11610491071 304.34709821429 86.68641741071 303.19084821429 85.73329241071 C 302.03459821429 84.78016741071 300.28459821429 84.30360491071 297.94084821429 84.30360491071 L 292.17522321429 83.97547991071 L 292.17522321429 123.81922991071 L 282.47209821429 123.81922991071 L 282.47209821429 41.31922991071 Z M 304.92522321429 61.52235491071 C 304.92522321429 55.17860491071 304.35491071429 51.50672991071 303.21428571429 50.50672991071 C 302.07366071429 49.50672991071 300.42522321429 49.00672991071 298.26897321429 49.00672991071 L 292.17522321429 49.00672991071 L 292.17522321429 76.85047991071 L 298.36272321429 76.85047991071 C 300.23772321429 76.85047991071 301.61272321429 76.49110491071 302.48772321429 75.77235491071 C 303.36272321429 75.05360491071 303.98772321429 73.67860491071 304.36272321429 71.64735491071 C 304.73772321429 69.61610491071 304.92522321429 66.42860491071 304.92522321429 62.08485491071 L 304.92522321429 61.52235491071 Z M 351.51897321429 41.31922991071 L 361.26897321429 41.31922991071 L 345.89397321429 82.05360491071 L 362.34709821429 123.81922991071 L 352.22209821429 123.81922991071 L 336.94084821429 84.35047991071 L 336.94084821429 123.81922991071 L 327.14397321429 123.81922991071 L 327.14397321429 41.31922991071 L 336.84709821429 41.31922991071 L 336.84709821429 80.64735491071 L 351.51897321429 41.31922991071 Z M 369.05022321429 41.31922991071 L 393.70647321429 41.31922991071 L 393.70647321429 49.38172991071 L 378.75334821429 49.38172991071 L 378.75334821429 77.60047991071 L 392.90959821429 77.60047991071 L 392.90959821429 85.66297991071 L 378.75334821429 85.66297991071 L 378.75334821429 115.75672991071 L 393.89397321429 115.75672991071 L 393.89397321429 123.81922991071 L 369.05022321429 123.81922991071 L 369.05022321429 41.31922991071 Z M 399.75334821429 41.31922991071 L 426.98772321429 41.31922991071 L 426.98772321429 49.38172991071 L 418.50334821429 49.38172991071 L 418.50334821429 123.81922991071 L 408.84709821429 123.81922991071 L 408.84709821429 49.38172991071 L 399.75334821429 49.38172991071 L 399.75334821429 41.31922991071 Z M 481.12834821429 80.36610491071 C 486.81584821429 82.95985491071 489.65959821429 89.86610491071 489.65959821429 101.08485491071 C 489.65959821429 109.11610491071 488.33147321429 115.06922991071 485.67522321429 118.94422991071 C 483.01897321429 122.81922991071 478.80022321429 124.75672991071 473.01897321429 124.75672991071 C 467.23772321429 124.75672991071 463.15959821429 122.89735491071 460.78459821429 119.17860491071 C 458.40959821429 115.45985491071 457.22209821429 109.60047991071 457.22209821429 101.60047991071 L 457.22209821429 97.94422991071 L 466.59709821429 97.94422991071 L 466.59709821429 101.74110491071 C 466.59709821429 107.58485491071 466.99553571429 111.51454241071 467.79241071429 113.53016741071 C 468.58928571429 115.54579241071 470.35491071429 116.55360491071 473.08928571429 116.55360491071 C 475.82366071429 116.55360491071 477.66741071429 115.39735491071 478.62053571429 113.08485491071 C 479.57366071429 110.77235491071 480.05022321429 106.62391741071 480.05022321429 100.63954241071 C 480.05022321429 94.65516741071 479.40178571429 90.45204241071 478.10491071429 88.03016741071 C 476.80803571429 85.60829241071 474.50334821429 84.39735491071 471.19084821429 84.39735491071 L 468.51897321429 84.39735491071 L 468.51897321429 76.66297991071 L 471.09709821429 76.66297991071 C 473.40959821429 76.66297991071 475.15959821429 76.28797991071 476.34709821429 75.53797991071 C 478.75334821429 74.03797991071 479.95647321429 69.61610491071 479.95647321429 62.27235491071 C 479.95647321429 62.17860491071 479.95647321429 62.08485491071 479.95647321429 61.99110491071 C 479.95647321429 56.52235491071 479.34709821429 52.92860491071 478.12834821429 51.20985491071 C 476.90959821429 49.49110491071 475.22991071429 48.63172991071 473.08928571429 48.63172991071 C 470.94866071429 48.63172991071 469.38616071429 49.60829241071 468.40178571429 51.56141741071 C 467.41741071429 53.51454241071 466.92522321429 57.03797991071 466.92522321429 62.13172991071 L 466.92522321429 64.10047991071 L 457.40959821429 64.10047991071 L 457.40959821429 61.99110491071 C 457.40959821429 54.58485491071 458.61272321429 49.13172991071 461.01897321429 45.63172991071 C 463.42522321429 42.13172991071 467.45647321429 40.38172991071 473.11272321429 40.38172991071 C 478.76897321429 40.38172991071 482.90959821429 42.17079241071 485.53459821429 45.74891741071 C 488.15959821429 49.32704241071 489.47209821429 54.74110491071 489.47209821429 61.99110491071 C 489.47209821429 72.17860491071 486.69084821429 78.30360491071 481.12834821429 80.36610491071 Z M 501.14397321429 41.31922991071 L 516.65959821429 41.31922991071 C 522.97209821429 41.31922991071 527.31584821429 43.26454241071 529.69084821429 47.15516741071 C 532.06584821429 51.04579241071 533.25334821429 56.56922991071 533.25334821429 63.72547991071 L 533.30022321429 99.95985491071 C 533.30022321429 108.42860491071 532.00334821429 114.52235491071 529.40959821429 118.24110491071 C 526.81584821429 121.95985491071 522.45647321429 123.81922991071 516.33147321429 123.81922991071 L 501.14397321429 123.81922991071 L 501.14397321429 41.31922991071 Z M 523.59709821429 63.49110491071 C 523.59709821429 58.33485491071 522.98772321429 54.63172991071 521.76897321429 52.38172991071 C 520.55022321429 50.13172991071 518.55022321429 49.00672991071 515.76897321429 49.00672991071 L 510.80022321429 49.00672991071 L 510.80022321429 115.99110491071 L 515.76897321429 115.99110491071 C 517.64397321429 115.99110491071 519.11272321429 115.61610491071 520.17522321429 114.86610491071 C 522.45647321429 113.24110491071 523.59709821429 108.77235491071 523.59709821429 101.45985491071 L 523.59709821429 63.49110491071 Z"/></svg>